STARTFONT 2.1
FONT -Monotype-Century Gothic-Regular-R-Normal--25-180-100-100-P-114-iso8859-9
SIZE 18 100 100
FONTBOUNDINGBOX 33 30 -4 -6

STARTPROPERTIES 24
FOUNDRY "Monotype"
FAMILY_NAME "Century Gothic"
WEIGHT_NAME "Regular"
SLANT "R"
SETWIDTH_NAME "Normal"
ADD_STYLE_NAME ""
PIXEL_SIZE 25
POINT_SIZE 180
RESOLUTION_X 100
RESOLUTION_Y 100
SPACING "P"
AVERAGE_WIDTH 114
CHARSET_REGISTRY "iso8859"
CHARSET_ENCODING "9"
FACE_NAME "Century Gothic ISO Latin5"
_DEC_DEVICE_FONTNAMES "PS=centurygothic-lat5"
COPYRIGHT "Copyright (c) 1993 Monotype Typography Ltd."
CAP_HEIGHT 21
X_HEIGHT 15
WEIGHT 10
QUAD_WIDTH 17
DEFAULT_CHAR 160
FONT_DESCENT 6
FONT_ASCENT 24
ENDPROPERTIES

CHARS 191

STARTCHAR space
ENCODING 32
SWIDTH 277 0
DWIDTH 7 0
BBX 0 0 0 0
BITMAP
ENDCHAR

STARTCHAR exclam
ENCODING 33
SWIDTH 295 0
DWIDTH 7 0
BBX 3 18 2 0
BITMAP
C0
C0
C0
C0
C0
C0
C0
C0
C0
C0
C0
C0
C0
C0
00
40
E0
E0
ENDCHAR

STARTCHAR quotedbl
ENCODING 34
SWIDTH 309 0
DWIDTH 8 0
BBX 6 6 1 12
BITMAP
8C
8C
8C
84
84
84
ENDCHAR

STARTCHAR numbersign
ENCODING 35
SWIDTH 720 0
DWIDTH 18 0
BBX 14 19 2 0
BITMAP
0430
0430
0430
0420
0C20
0C20
7FFC
0860
0860
0840
1840
FFF8
1840
1040
10C0
10C0
1080
3080
3080
ENDCHAR

STARTCHAR dollar
ENCODING 36
SWIDTH 554 0
DWIDTH 14 0
BBX 12 23 1 -4
BITMAP
0600
0F00
3FC0
36E0
6640
6600
6600
3600
1E00
0700
07C0
06E0
0630
0630
0630
C630
6660
3FC0
0F00
0600
0600
0600
0600
ENDCHAR

STARTCHAR percent
ENCODING 37
SWIDTH 775 0
DWIDTH 19 0
BBX 19 20 0 -2
BITMAP
1C0780
3FFF00
63F200
C18400
C18C00
C18800
631800
7F3000
1C2000
006000
00C000
008700
019FC0
0318C0
023060
063060
0C3060
0818C0
181F80
300700
ENDCHAR

STARTCHAR ampersand
ENCODING 38
SWIDTH 757 0
DWIDTH 19 0
BBX 16 18 2 0
BITMAP
0F00
1F80
30C0
30C0
30C0
1980
1D00
0E00
1E00
3B00
7180
60C4
C06E
C038
C078
61EC
7F8E
1E07
ENDCHAR

STARTCHAR quoteright
ENCODING 39
SWIDTH 351 0
DWIDTH 9 0
BBX 2 7 3 11
BITMAP
C0
C0
C0
40
40
C0
40
ENDCHAR

STARTCHAR parenleft
ENCODING 40
SWIDTH 369 0
DWIDTH 9 0
BBX 5 24 3 -5
BITMAP
38
30
30
60
60
60
60
C0
C0
C0
C0
C0
C0
C0
C0
C0
C0
C0
60
60
60
60
30
30
ENDCHAR

STARTCHAR parenright
ENCODING 41
SWIDTH 369 0
DWIDTH 9 0
BBX 5 24 1 -5
BITMAP
60
20
30
30
30
10
18
18
18
18
18
18
18
18
18
18
18
10
30
30
30
60
60
E0
ENDCHAR

STARTCHAR asterisk
ENCODING 42
SWIDTH 425 0
DWIDTH 11 0
BBX 9 9 1 9
BITMAP
0800
0800
C980
6B00
1800
7A00
CB80
0800
0800
ENDCHAR

STARTCHAR plus
ENCODING 43
SWIDTH 606 0
DWIDTH 15 0
BBX 12 12 2 3
BITMAP
0600
0600
0600
0600
0600
FFF0
FFF0
0600
0600
0600
0600
0600
ENDCHAR

STARTCHAR comma
ENCODING 44
SWIDTH 277 0
DWIDTH 7 0
BBX 3 5 2 -2
BITMAP
60
60
C0
C0
80
ENDCHAR

STARTCHAR minus
ENCODING 45
SWIDTH 606 0
DWIDTH 15 0
BBX 13 2 1 8
BITMAP
FFF8
FFF8
ENDCHAR

STARTCHAR period
ENCODING 46
SWIDTH 277 0
DWIDTH 7 0
BBX 3 3 2 0
BITMAP
E0
E0
E0
ENDCHAR

STARTCHAR slash
ENCODING 47
SWIDTH 437 0
DWIDTH 11 0
BBX 9 21 1 -3
BITMAP
0180
0180
0300
0300
0300
0600
0600
0600
0C00
0C00
0800
1800
1800
3000
3000
3000
6000
6000
6000
C000
C000
ENDCHAR

STARTCHAR zero
ENCODING 48
SWIDTH 554 0
DWIDTH 14 0
BBX 13 18 0 0
BITMAP
0F00
1FC0
3060
6030
6030
C018
C018
C018
C018
C018
C018
C018
C018
6030
6030
3060
1FC0
0700
ENDCHAR

STARTCHAR one
ENCODING 49
SWIDTH 554 0
DWIDTH 14 0
BBX 5 18 3 0
BITMAP
78
F8
18
18
18
18
18
18
18
18
18
18
18
18
18
18
18
18
ENDCHAR

STARTCHAR two
ENCODING 50
SWIDTH 554 0
DWIDTH 14 0
BBX 12 18 1 0
BITMAP
0F00
1FC0
3060
6030
4030
C030
0030
0060
0060
00C0
0180
0300
0600
0C00
1800
3000
7FF0
FFF0
ENDCHAR

STARTCHAR three
ENCODING 51
SWIDTH 554 0
DWIDTH 14 0
BBX 12 18 1 0
BITMAP
0F00
3FC0
70C0
6060
0060
0060
00C0
0780
07C0
00E0
0070
0030
0030
C030
C060
60E0
3FC0
0F00
ENDCHAR

STARTCHAR four
ENCODING 52
SWIDTH 554 0
DWIDTH 14 0
BBX 12 18 1 0
BITMAP
0040
0040
00C0
01C0
03C0
03C0
06C0
0CC0
1CC0
18C0
30C0
60C0
FFF0
FFF0
00C0
00C0
00C0
00C0
ENDCHAR

STARTCHAR five
ENCODING 53
SWIDTH 554 0
DWIDTH 14 0
BBX 12 18 1 0
BITMAP
0FE0
1FE0
1800
1800
1800
1000
3F00
3FC0
20E0
0070
0030
0030
0030
C030
6060
60E0
3FC0
0F00
ENDCHAR

STARTCHAR six
ENCODING 54
SWIDTH 554 0
DWIDTH 14 0
BBX 11 18 2 0
BITMAP
0100
0380
0300
0600
0C00
0C00
1000
3600
7F80
60C0
C060
C060
C060
C060
E060
71C0
3F80
1F00
ENDCHAR

STARTCHAR seven
ENCODING 55
SWIDTH 554 0
DWIDTH 14 0
BBX 11 18 2 0
BITMAP
FFE0
FFC0
00C0
0180
0180
0300
0300
0600
0600
0C00
0C00
1800
1000
3000
6000
6000
C000
4000
ENDCHAR

STARTCHAR eight
ENCODING 56
SWIDTH 554 0
DWIDTH 14 0
BBX 13 18 0 0
BITMAP
0F80
1FC0
3060
6030
6030
6030
3060
0FC0
1FC0
7070
6030
C018
C018
C018
6030
7070
3FE0
0F80
ENDCHAR

STARTCHAR nine
ENCODING 57
SWIDTH 554 0
DWIDTH 14 0
BBX 11 18 1 0
BITMAP
1F00
3F80
60C0
E060
C060
C060
C060
C060
60C0
3FC0
0F80
0300
0600
0600
0C00
1800
3800
1000
ENDCHAR

STARTCHAR colon
ENCODING 58
SWIDTH 277 0
DWIDTH 7 0
BBX 3 14 2 0
BITMAP
E0
E0
E0
00
00
00
00
00
00
00
00
E0
E0
E0
ENDCHAR

STARTCHAR semicolon
ENCODING 59
SWIDTH 277 0
DWIDTH 7 0
BBX 4 16 1 -2
BITMAP
70
70
70
00
00
00
00
00
00
00
20
30
60
60
C0
40
ENDCHAR

STARTCHAR less
ENCODING 60
SWIDTH 606 0
DWIDTH 15 0
BBX 13 14 1 2
BITMAP
0008
0018
00F0
03C0
0F00
3C00
F000
F000
3C00
0F00
03C0
00F0
0018
0008
ENDCHAR

STARTCHAR equal
ENCODING 61
SWIDTH 606 0
DWIDTH 15 0
BBX 13 7 1 5
BITMAP
FFF8
FFF8
0000
0000
0000
FFF8
FFF8
ENDCHAR

STARTCHAR greater
ENCODING 62
SWIDTH 606 0
DWIDTH 15 0
BBX 13 14 1 2
BITMAP
8000
C000
7800
1E00
0780
01E0
0038
0078
01E0
0780
1E00
7800
E000
8000
ENDCHAR

STARTCHAR question
ENCODING 63
SWIDTH 591 0
DWIDTH 15 0
BBX 11 18 2 0
BITMAP
1F00
7FC0
60E0
C060
C060
00E0
03C0
0F00
3800
6000
60C0
70C0
3F80
1F00
0000
0E00
0E00
0E00
ENDCHAR

STARTCHAR at
ENCODING 64
SWIDTH 867 0
DWIDTH 22 0
BBX 18 19 2 0
BITMAP
03F800
0E0E00
180300
300180
600080
41EC40
C33840
861840
8C0840
8C0840
8C1840
8C1880
4C1100
463200
63DC00
300180
180300
0E0E00
01F800
ENDCHAR

STARTCHAR A
ENCODING 65
SWIDTH 740 0
DWIDTH 18 0
BBX 17 18 1 0
BITMAP
008000
018000
01C000
01C000
036000
036000
063000
063000
0C1000
081800
1FF800
1FFC00
300C00
300600
600600
600300
C00300
C00180
ENDCHAR

STARTCHAR B
ENCODING 66
SWIDTH 574 0
DWIDTH 14 0
BBX 11 18 2 0
BITMAP
FE00
FF80
C1C0
C0C0
C0C0
C0C0
C180
FF00
FF80
C1C0
C0E0
C060
C060
C060
C0E0
C1C0
FF80
FE00
ENDCHAR

STARTCHAR C
ENCODING 67
SWIDTH 813 0
DWIDTH 20 0
BBX 18 18 1 0
BITMAP
01F800
0FFE00
1C0780
3801C0
700080
600000
C00000
C00000
C00000
C00000
C00000
400000
600000
700080
3801C0
1C0780
07FE00
01F000
ENDCHAR

STARTCHAR D
ENCODING 68
SWIDTH 744 0
DWIDTH 19 0
BBX 15 18 2 0
BITMAP
FF80
FFE0
C070
C018
C00C
C00C
C006
C006
C006
C006
C006
C006
C00C
C00C
C018
C078
FFE0
FF80
ENDCHAR

STARTCHAR E
ENCODING 69
SWIDTH 536 0
DWIDTH 13 0
BBX 10 18 2 0
BITMAP
FFC0
FFC0
C000
C000
C000
C000
C000
FFC0
FFC0
C000
C000
C000
C000
C000
C000
C000
FFC0
FFC0
ENDCHAR

STARTCHAR F
ENCODING 70
SWIDTH 485 0
DWIDTH 12 0
BBX 9 18 2 0
BITMAP
FF80
FF80
C000
C000
C000
C000
C000
FF80
FF80
C000
C000
C000
C000
C000
C000
C000
C000
C000
ENDCHAR

STARTCHAR G
ENCODING 71
SWIDTH 872 0
DWIDTH 22 0
BBX 19 18 1 0
BITMAP
01F800
0FFE00
1C0780
3801C0
700040
600000
C00000
C00000
C00000
C01FE0
C01FE0
600060
600060
7000C0
380180
1E0780
07FE00
01F800
ENDCHAR

STARTCHAR H
ENCODING 72
SWIDTH 683 0
DWIDTH 17 0
BBX 13 18 2 0
BITMAP
C018
C018
C018
C018
C018
C018
C018
FFF8
FFF8
C018
C018
C018
C018
C018
C018
C018
C018
C018
ENDCHAR

STARTCHAR I
ENCODING 73
SWIDTH 226 0
DWIDTH 6 0
BBX 2 18 2 0
BITMAP
C0
C0
C0
C0
C0
C0
C0
C0
C0
C0
C0
C0
C0
C0
C0
C0
C0
C0
ENDCHAR

STARTCHAR J
ENCODING 74
SWIDTH 482 0
DWIDTH 12 0
BBX 9 18 1 0
BITMAP
0180
0180
0180
0180
0180
0180
0180
0180
0180
0180
0180
0180
0180
0180
0180
E300
7F00
1C00
ENDCHAR

STARTCHAR K
ENCODING 75
SWIDTH 591 0
DWIDTH 15 0
BBX 12 18 2 0
BITMAP
C070
C0C0
C180
C700
CE00
DC00
D800
F000
E000
F000
D800
CC00
C600
C300
C180
C0C0
C060
C030
ENDCHAR

STARTCHAR L
ENCODING 76
SWIDTH 462 0
DWIDTH 12 0
BBX 9 18 2 0
BITMAP
C000
C000
C000
C000
C000
C000
C000
C000
C000
C000
C000
C000
C000
C000
C000
C000
FF80
FF80
ENDCHAR

STARTCHAR M
ENCODING 77
SWIDTH 919 0
DWIDTH 23 0
BBX 21 18 1 0
BITMAP
100040
100040
100040
3800E0
3800E0
3401E0
3401E0
360360
220220
230620
610430
618C30
608830
60D830
605030
407010
402010
C02018
ENDCHAR

STARTCHAR N
ENCODING 78
SWIDTH 740 0
DWIDTH 18 0
BBX 14 18 2 0
BITMAP
800C
C00C
E00C
E00C
D00C
D80C
CC0C
C60C
C70C
C38C
C18C
C0CC
C06C
C03C
C01C
C00C
C00C
C004
ENDCHAR

STARTCHAR O
ENCODING 79
SWIDTH 869 0
DWIDTH 22 0
BBX 19 18 1 0
BITMAP
03F000
0FFE00
1C0700
380380
7001C0
6000C0
C00060
C00060
C00060
C00060
C00060
C00060
6000C0
7001C0
380380
1C0700
0FFE00
01F000
ENDCHAR

STARTCHAR P
ENCODING 80
SWIDTH 592 0
DWIDTH 15 0
BBX 11 18 2 0
BITMAP
FF00
FFC0
C0C0
C060
C060
C060
C060
C0C0
FFC0
FF00
C000
C000
C000
C000
C000
C000
C000
C000
ENDCHAR

STARTCHAR Q
ENCODING 81
SWIDTH 871 0
DWIDTH 22 0
BBX 19 19 1 -1
BITMAP
03F000
0FFE00
1C0700
380380
7001C0
6000C0
C00060
C00060
C00060
C00060
C07060
C03060
6018C0
700DC0
380780
1C0700
0FFF80
01F180
0000E0
ENDCHAR

STARTCHAR R
ENCODING 82
SWIDTH 607 0
DWIDTH 15 0
BBX 11 18 2 0
BITMAP
FF00
FFC0
C0C0
C060
C060
C060
C060
C1C0
FF80
FC00
CC00
CC00
C600
C300
C180
C1C0
C0C0
C060
ENDCHAR

STARTCHAR S
ENCODING 83
SWIDTH 498 0
DWIDTH 12 0
BBX 10 18 1 0
BITMAP
1E00
3F80
71C0
6080
6000
7000
3000
1C00
0E00
0700
0180
00C0
00C0
40C0
C0C0
6180
3F80
1E00
ENDCHAR

STARTCHAR T
ENCODING 84
SWIDTH 426 0
DWIDTH 11 0
BBX 10 18 0 0
BITMAP
FFC0
FFC0
0C00
0C00
0C00
0C00
0C00
0C00
0C00
0C00
0C00
0C00
0C00
0C00
0C00
0C00
0C00
0C00
ENDCHAR

STARTCHAR U
ENCODING 85
SWIDTH 655 0
DWIDTH 16 0
BBX 12 18 2 0
BITMAP
C030
C030
C030
C030
C030
C030
C030
C030
C030
C030
C030
C030
C030
C030
6060
70E0
3FC0
0F00
ENDCHAR

STARTCHAR V
ENCODING 86
SWIDTH 702 0
DWIDTH 18 0
BBX 16 18 1 0
BITMAP
C003
C006
6006
600C
300C
3018
1818
1818
1830
0C30
0C60
0660
06C0
03C0
0380
0180
0180
0100
ENDCHAR

STARTCHAR W
ENCODING 87
SWIDTH 960 0
DWIDTH 24 0
BBX 22 18 1 0
BITMAP
C0100C
403008
603018
607818
607818
306830
30CC30
30CC30
118620
198660
198660
1B0360
0F03C0
0E01C0
0E01C0
060180
040080
040080
ENDCHAR

STARTCHAR X
ENCODING 88
SWIDTH 609 0
DWIDTH 15 0
BBX 13 18 1 0
BITMAP
E018
6030
3030
3060
18C0
0CC0
0D80
0700
0300
0700
0E80
0D80
18C0
1860
3060
6030
6018
C018
ENDCHAR

STARTCHAR Y
ENCODING 89
SWIDTH 592 0
DWIDTH 15 0
BBX 14 18 0 0
BITMAP
E01C
6018
3030
3870
1860
0CC0
0CC0
0780
0300
0300
0300
0300
0300
0300
0300
0300
0300
0300
ENDCHAR

STARTCHAR Z
ENCODING 90
SWIDTH 480 0
DWIDTH 12 0
BBX 10 18 1 0
BITMAP
7FC0
7F80
0180
0300
0300
0200
0600
0400
0C00
0C00
1800
1800
3000
3000
6000
4000
FFC0
FFC0
ENDCHAR

STARTCHAR bracketleft
ENCODING 91
SWIDTH 351 0
DWIDTH 9 0
BBX 4 23 3 -5
BITMAP
F0
F0
C0
C0
C0
C0
C0
C0
C0
C0
C0
C0
C0
C0
C0
C0
C0
C0
C0
C0
C0
F0
F0
ENDCHAR

STARTCHAR backslash
ENCODING 92
SWIDTH 605 0
DWIDTH 15 0
BBX 13 21 1 -3
BITMAP
C000
4000
6000
3000
3000
1800
1800
0C00
0400
0600
0300
0300
0180
0180
00C0
00C0
0060
0030
0030
0018
0018
ENDCHAR

STARTCHAR bracketright
ENCODING 93
SWIDTH 351 0
DWIDTH 9 0
BBX 4 23 1 -5
BITMAP
F0
F0
30
30
30
30
30
30
30
30
30
30
30
30
30
30
30
30
30
30
30
F0
F0
ENDCHAR

STARTCHAR asciicircum
ENCODING 94
SWIDTH 672 0
DWIDTH 17 0
BBX 13 14 2 4
BITMAP
0200
0700
0500
0D80
0980
18C0
10C0
3060
2060
6020
6030
4010
C018
8008
ENDCHAR

STARTCHAR underscore
ENCODING 95
SWIDTH 500 0
DWIDTH 13 0
BBX 13 1 0 -3
BITMAP
FFF8
ENDCHAR

STARTCHAR quoteleft
ENCODING 96
SWIDTH 351 0
DWIDTH 9 0
BBX 2 7 4 11
BITMAP
40
C0
80
80
C0
C0
C0
ENDCHAR

STARTCHAR a
ENCODING 97
SWIDTH 683 0
DWIDTH 17 0
BBX 14 14 1 0
BITMAP
078C
1FEC
383C
601C
600C
C00C
C00C
C00C
C00C
600C
601C
303C
1FEC
078C
ENDCHAR

STARTCHAR b
ENCODING 98
SWIDTH 682 0
DWIDTH 17 0
BBX 14 18 2 0
BITMAP
C000
C000
C000
C000
C780
DFE0
F030
E018
C008
C00C
C00C
C00C
C00C
C018
E018
D070
DFE0
C780
ENDCHAR

STARTCHAR c
ENCODING 99
SWIDTH 647 0
DWIDTH 16 0
BBX 14 14 1 0
BITMAP
07C0
1FF0
381C
6008
6000
C000
C000
C000
C000
6000
600C
3838
1FF0
07C0
ENDCHAR

STARTCHAR d
ENCODING 100
SWIDTH 685 0
DWIDTH 17 0
BBX 14 18 1 0
BITMAP
000C
000C
000C
000C
078C
1FEC
383C
601C
600C
C00C
C00C
C00C
C00C
600C
601C
383C
1FEC
078C
ENDCHAR

STARTCHAR e
ENCODING 101
SWIDTH 650 0
DWIDTH 16 0
BBX 14 14 1 0
BITMAP
0780
1FE0
3030
6018
400C
FFFC
FFFC
C000
C000
600C
6018
3830
1FE0
0780
ENDCHAR

STARTCHAR f
ENCODING 102
SWIDTH 314 0
DWIDTH 8 0
BBX 7 20 1 0
BITMAP
1E
3E
30
30
30
30
FE
30
30
30
30
30
30
30
30
30
30
30
30
30
ENDCHAR

STARTCHAR g
ENCODING 103
SWIDTH 673 0
DWIDTH 17 0
BBX 14 19 1 -5
BITMAP
078C
1FEC
383C
601C
600C
C00C
C00C
C00C
C00C
600C
601C
383C
1FEC
078C
000C
E018
7038
1FE0
0780
ENDCHAR

STARTCHAR h
ENCODING 104
SWIDTH 610 0
DWIDTH 15 0
BBX 12 18 2 0
BITMAP
C000
C000
C000
C000
C700
DFC0
F060
E030
C030
C030
C030
C030
C030
C030
C030
C030
C030
C030
ENDCHAR

STARTCHAR i
ENCODING 105
SWIDTH 200 0
DWIDTH 5 0
BBX 3 19 1 0
BITMAP
E0
E0
40
00
00
60
60
60
60
60
60
60
60
60
60
60
60
60
60
ENDCHAR

STARTCHAR j
ENCODING 106
SWIDTH 203 0
DWIDTH 5 0
BBX 4 24 0 -5
BITMAP
70
70
20
00
00
30
30
30
30
30
30
30
30
30
30
30
30
30
30
30
30
30
F0
E0
ENDCHAR

STARTCHAR k
ENCODING 107
SWIDTH 502 0
DWIDTH 13 0
BBX 11 18 2 0
BITMAP
C000
C000
C000
C000
C0E0
C180
C700
CE00
DC00
D800
E000
F000
D800
CC00
C600
C380
C1C0
C0E0
ENDCHAR

STARTCHAR l
ENCODING 108
SWIDTH 200 0
DWIDTH 5 0
BBX 2 18 2 0
BITMAP
C0
C0
C0
C0
C0
C0
C0
C0
C0
C0
C0
C0
C0
C0
C0
C0
C0
C0
ENDCHAR

STARTCHAR m
ENCODING 109
SWIDTH 938 0
DWIDTH 23 0
BBX 20 14 2 0
BITMAP
CF0380
DFCFE0
F0D860
E07030
C06030
C06030
C06030
C06030
C06030
C06030
C06030
C06030
C06030
C06030
ENDCHAR

STARTCHAR n
ENCODING 110
SWIDTH 610 0
DWIDTH 15 0
BBX 12 14 2 0
BITMAP
C780
DFC0
F060
E030
C030
C030
C030
C030
C030
C030
C030
C030
C030
C030
ENDCHAR

STARTCHAR o
ENCODING 111
SWIDTH 655 0
DWIDTH 16 0
BBX 14 14 1 0
BITMAP
0780
1FE0
3830
6018
6008
C00C
C00C
C00C
C00C
6018
6018
3030
1FE0
0780
ENDCHAR

STARTCHAR p
ENCODING 112
SWIDTH 682 0
DWIDTH 17 0
BBX 14 19 2 -5
BITMAP
C780
DFE0
F030
E018
C008
C00C
C00C
C00C
C00C
C018
E018
D070
DFE0
C780
C000
C000
C000
C000
C000
ENDCHAR

STARTCHAR q
ENCODING 113
SWIDTH 682 0
DWIDTH 17 0
BBX 14 19 1 -5
BITMAP
078C
1FEC
383C
601C
600C
C00C
C00C
C00C
C00C
600C
601C
383C
1FEC
078C
000C
000C
000C
000C
000C
ENDCHAR

STARTCHAR r
ENCODING 114
SWIDTH 301 0
DWIDTH 8 0
BBX 7 14 1 0
BITMAP
CE
DC
E0
E0
C0
C0
C0
C0
C0
C0
C0
C0
C0
C0
ENDCHAR

STARTCHAR s
ENCODING 115
SWIDTH 388 0
DWIDTH 10 0
BBX 8 14 1 0
BITMAP
3C
7F
C2
C0
C0
60
38
0E
07
03
03
C7
FE
38
ENDCHAR

STARTCHAR t
ENCODING 116
SWIDTH 339 0
DWIDTH 8 0
BBX 7 19 1 0
BITMAP
30
30
30
30
30
FE
30
30
30
30
30
30
30
30
30
30
30
30
30
ENDCHAR

STARTCHAR u
ENCODING 117
SWIDTH 608 0
DWIDTH 15 0
BBX 12 14 2 0
BITMAP
C030
C030
C030
C030
C030
C030
C030
C030
C030
C030
6060
70E0
3FC0
0F00
ENDCHAR

STARTCHAR v
ENCODING 118
SWIDTH 554 0
DWIDTH 14 0
BBX 12 14 1 0
BITMAP
C030
C030
6060
6060
20C0
30C0
3080
1980
1900
0F00
0F00
0600
0600
0200
ENDCHAR

STARTCHAR w
ENCODING 119
SWIDTH 831 0
DWIDTH 21 0
BBX 21 14 0 0
BITMAP
C02018
402030
607030
607060
30D060
30D840
1998C0
198CC0
090D80
0F0780
0F0700
060300
060200
020200
ENDCHAR

STARTCHAR x
ENCODING 120
SWIDTH 480 0
DWIDTH 12 0
BBX 12 14 0 0
BITMAP
E070
6060
30C0
1980
1B80
0F00
0600
0F00
0D00
1980
30C0
70C0
6060
C030
ENDCHAR

STARTCHAR y
ENCODING 121
SWIDTH 536 0
DWIDTH 13 0
BBX 12 19 1 -5
BITMAP
8030
C030
C060
6060
60C0
30C0
3080
1980
1980
0B00
0F00
0E00
0600
0400
0C00
0C00
1800
1800
3000
ENDCHAR

STARTCHAR z
ENCODING 122
SWIDTH 425 0
DWIDTH 11 0
BBX 11 14 0 0
BITMAP
7FE0
01C0
0180
0300
0300
0600
0E00
0C00
1800
1800
3000
6000
7FC0
FFC0
ENDCHAR

STARTCHAR braceleft
ENCODING 123
SWIDTH 351 0
DWIDTH 9 0
BBX 8 24 0 -6
BITMAP
07
0F
18
18
18
18
18
18
18
18
30
C0
E0
30
18
18
18
18
18
18
18
18
0F
07
ENDCHAR

STARTCHAR bar
ENCODING 124
SWIDTH 672 0
DWIDTH 17 0
BBX 2 23 7 -5
BITMAP
C0
C0
C0
C0
C0
C0
C0
C0
C0
C0
C0
C0
C0
C0
C0
C0
C0
C0
C0
C0
C0
C0
C0
ENDCHAR

STARTCHAR braceright
ENCODING 125
SWIDTH 351 0
DWIDTH 9 0
BBX 7 24 1 -6
BITMAP
C0
E0
30
30
30
30
30
30
30
30
18
0E
0E
18
30
30
30
30
30
30
30
30
E0
E0
ENDCHAR

STARTCHAR asciitilde
ENCODING 126
SWIDTH 606 0
DWIDTH 15 0
BBX 13 4 1 7
BITMAP
3C00
FF18
C3F8
00E0
ENDCHAR

STARTCHAR space
ENCODING 160
SWIDTH 277 0
DWIDTH 8 0
BBX 0 0 0 0
BITMAP
ENDCHAR

STARTCHAR exclamdown
ENCODING 161
SWIDTH 295 0
DWIDTH 7 0
BBX 3 19 2 -5
BITMAP
E0
E0
E0
00
00
60
60
60
60
60
60
60
60
60
60
60
60
60
60
ENDCHAR

STARTCHAR cent
ENCODING 162
SWIDTH 554 0
DWIDTH 14 0
BBX 12 20 1 -3
BITMAP
0010
0030
0020
0FE0
1FE0
30F0
6190
4180
C300
C300
C600
C600
6C00
6C00
3870
1FE0
3780
3000
6000
4000
ENDCHAR

STARTCHAR sterling
ENCODING 163
SWIDTH 554 0
DWIDTH 14 0
BBX 13 18 0 0
BITMAP
0380
0FE0
1C30
1830
1800
1800
0C00
7FC0
7FC0
0600
0600
0600
0600
3E00
FE18
CF18
FDF0
70E0
ENDCHAR

STARTCHAR currency
ENCODING 164
SWIDTH 554 0
DWIDTH 14 0
BBX 13 13 0 2
BITMAP
4F90
EFF8
3060
6030
C018
C018
C018
C018
C018
6030
7070
EFD8
4F88
ENDCHAR

STARTCHAR yen
ENCODING 165
SWIDTH 554 0
DWIDTH 14 0
BBX 12 18 1 0
BITMAP
C030
6060
6060
30C0
30C0
1980
0F00
0F00
0600
7FE0
0600
0600
7FE0
0600
0600
0600
0600
0600
ENDCHAR

STARTCHAR brokenbar
ENCODING 166
SWIDTH 672 0
DWIDTH 17 0
BBX 2 23 7 -5
BITMAP
C0
C0
C0
C0
C0
C0
C0
C0
00
00
00
00
00
00
00
C0
C0
C0
C0
C0
C0
C0
C0
ENDCHAR

STARTCHAR section
ENCODING 167
SWIDTH 615 0
DWIDTH 15 0
BBX 11 24 1 -5
BITMAP
1F00
3F80
70C0
60C0
6000
7000
3800
1C00
3F00
6380
C0C0
C060
C060
6060
38C0
1F80
0700
0180
00C0
00C0
40C0
61C0
3F80
1E00
ENDCHAR

STARTCHAR dieresis
ENCODING 168
SWIDTH 369 0
DWIDTH 9 0
BBX 8 3 1 16
BITMAP
E7
E7
63
ENDCHAR

STARTCHAR copyright
ENCODING 169
SWIDTH 747 0
DWIDTH 19 0
BBX 18 18 0 0
BITMAP
07F000
0C0C00
300300
20E100
43F880
C618C0
840840
8C0040
8C0040
8C0040
8C0840
C618C0
473080
63E180
300300
180600
0E1C00
03F000
ENDCHAR

STARTCHAR ordfeminine
ENCODING 170
SWIDTH 369 0
DWIDTH 9 0
BBX 7 8 1 10
BITMAP
7A
C6
C2
82
82
C2
66
3A
ENDCHAR

STARTCHAR guillemotleft
ENCODING 171
SWIDTH 425 0
DWIDTH 11 0
BBX 10 14 0 0
BITMAP
18C0
30C0
3080
2180
6180
6300
C300
C300
6300
6180
3180
30C0
10C0
18C0
ENDCHAR

STARTCHAR logicalnot
ENCODING 172
SWIDTH 606 0
DWIDTH 15 0
BBX 12 7 2 6
BITMAP
FFF0
FFF0
0030
0030
0030
0030
0030
ENDCHAR

STARTCHAR hyphen
ENCODING 173
SWIDTH 332 0
DWIDTH 8 0
BBX 7 1 1 6
BITMAP
FE
ENDCHAR

STARTCHAR registered
ENCODING 174
SWIDTH 747 0
DWIDTH 19 0
BBX 18 18 0 0
BITMAP
03F000
0C1C00
180600
200300
67F180
463880
C618C0
861840
863840
87F040
861840
8618C0
C618C0
461980
200100
300600
0C1C00
03F000
ENDCHAR

STARTCHAR macron
ENCODING 175
SWIDTH 485 0
DWIDTH 12 0
BBX 8 1 2 17
BITMAP
FF
ENDCHAR

STARTCHAR degree
ENCODING 176
SWIDTH 400 0
DWIDTH 10 0
BBX 8 8 1 10
BITMAP
3C
66
C3
81
81
C3
66
3C
ENDCHAR

STARTCHAR plusminus
ENCODING 177
SWIDTH 606 0
DWIDTH 15 0
BBX 12 16 2 0
BITMAP
0600
0600
0600
0600
0600
FFF0
FFF0
0600
0600
0600
0600
0600
0000
0000
FFF0
FFF0
ENDCHAR

STARTCHAR twosuperior
ENCODING 178
SWIDTH 332 0
DWIDTH 8 0
BBX 7 9 1 9
BITMAP
7C
46
C2
02
04
08
30
60
FE
ENDCHAR

STARTCHAR threesuperior
ENCODING 179
SWIDTH 332 0
DWIDTH 8 0
BBX 7 9 1 9
BITMAP
78
CC
04
18
1C
02
82
C6
7C
ENDCHAR

STARTCHAR acute
ENCODING 180
SWIDTH 375 0
DWIDTH 9 0
BBX 5 4 3 16
BITMAP
38
30
60
C0
ENDCHAR

STARTCHAR mu
ENCODING 181
SWIDTH 608 0
DWIDTH 15 0
BBX 11 18 2 -4
BITMAP
C060
C060
C060
C060
C060
C060
C060
C060
C060
C060
E0E0
F1E0
DFE0
DF60
C000
C000
C000
C000
ENDCHAR

STARTCHAR paragraph
ENCODING 182
SWIDTH 564 0
DWIDTH 14 0
BBX 11 21 1 -2
BITMAP
1FE0
7C40
7C40
FC40
FC40
FC40
FC40
7C40
7C40
1C40
0440
0440
0440
0440
0440
0440
0440
0440
0440
0440
0440
ENDCHAR

STARTCHAR periodcentered
ENCODING 183
SWIDTH 277 0
DWIDTH 7 0
BBX 3 3 2 7
BITMAP
E0
E0
E0
ENDCHAR

STARTCHAR cedilla
ENCODING 184
SWIDTH 324 0
DWIDTH 8 0
BBX 5 4 1 -4
BITMAP
30
38
08
F8
ENDCHAR

STARTCHAR onesuperior
ENCODING 185
SWIDTH 332 0
DWIDTH 8 0
BBX 3 9 2 9
BITMAP
E0
20
20
20
20
20
20
20
20
ENDCHAR

STARTCHAR ordmasculine
ENCODING 186
SWIDTH 369 0
DWIDTH 9 0
BBX 7 8 1 10
BITMAP
7C
C6
C6
82
82
C6
64
38
ENDCHAR

STARTCHAR guillemotright
ENCODING 187
SWIDTH 425 0
DWIDTH 11 0
BBX 10 14 0 0
BITMAP
C300
6300
6180
2180
3080
30C0
1840
18C0
30C0
3080
2180
6180
6300
C300
ENDCHAR

STARTCHAR onequarter
ENCODING 188
SWIDTH 831 0
DWIDTH 21 0
BBX 18 18 1 0
BITMAP
E00600
200C00
200800
201800
201000
202000
206000
204000
20C080
008080
010180
030380
020280
040480
0C0C80
081FC0
180080
300080
ENDCHAR

STARTCHAR onehalf
ENCODING 189
SWIDTH 831 0
DWIDTH 21 0
BBX 18 19 1 -1
BITMAP
E00C00
200800
201800
201000
202000
206000
204000
20C000
208000
010780
0308C0
021840
060040
040080
080100
180600
100C00
301FC0
200000
ENDCHAR

STARTCHAR threequarters
ENCODING 190
SWIDTH 831 0
DWIDTH 21 0
BBX 20 18 1 0
BITMAP
780100
CC0200
040600
180400
1C0C00
021800
821000
C63000
7C2040
004040
00C0C0
0081C0
010340
030640
020440
061FF0
040040
080040
ENDCHAR

STARTCHAR questiondown
ENCODING 191
SWIDTH 591 0
DWIDTH 15 0
BBX 11 19 2 -5
BITMAP
0E00
0E00
0E00
0000
1F00
3F80
61C0
60C0
00C0
0380
0F00
3C00
7000
C060
C060
C060
60C0
7F80
1F00
ENDCHAR

STARTCHAR Agrave
ENCODING 192
SWIDTH 740 0
DWIDTH 18 0
BBX 17 23 1 0
BITMAP
070000
038000
018000
00C000
000000
008000
018000
01C000
01C000
036000
036000
063000
063000
0C1000
0C1800
1FF800
1FFC00
300C00
300600
600600
600300
C00300
C00180
ENDCHAR

STARTCHAR Aacute
ENCODING 193
SWIDTH 740 0
DWIDTH 18 0
BBX 17 23 1 0
BITMAP
007000
00C000
018000
030000
000000
008000
018000
01C000
01C000
036000
036000
063000
063000
0C1000
0C1800
1FF800
1FFC00
300C00
300600
600600
600300
C00300
C00180
ENDCHAR

STARTCHAR Acircumflex
ENCODING 194
SWIDTH 740 0
DWIDTH 18 0
BBX 17 22 1 0
BITMAP
03C000
076000
0E3800
000000
008000
018000
01C000
01C000
036000
036000
063000
063000
0C1000
0C1800
1FF800
1FFC00
300C00
300600
600600
600300
C00300
C00180
ENDCHAR

STARTCHAR Atilde
ENCODING 195
SWIDTH 740 0
DWIDTH 18 0
BBX 17 22 1 0
BITMAP
070000
0FF800
046000
000000
008000
018000
01C000
01C000
036000
036000
063000
063000
0C1000
0C1800
1FF800
1FFC00
300C00
300600
600600
600300
C00300
C00180
ENDCHAR

STARTCHAR Adieresis
ENCODING 196
SWIDTH 740 0
DWIDTH 18 0
BBX 18 22 0 0
BITMAP
073800
073800
021000
000000
004000
00C000
00C000
01E000
01A000
033000
033000
061800
061800
0C0C00
0FFC00
1FFE00
180600
300300
300300
600180
600180
C000C0
ENDCHAR

STARTCHAR Aring
ENCODING 197
SWIDTH 740 0
DWIDTH 18 0
BBX 17 24 1 0
BITMAP
01C000
022000
022000
022000
01C000
000000
008000
008000
01C000
01C000
036000
036000
063000
063000
0C1800
0C1800
1FFC00
1FFC00
300600
300600
700300
600300
600300
C00180
ENDCHAR

STARTCHAR AE
ENCODING 198
SWIDTH 992 0
DWIDTH 25 0
BBX 22 18 0 0
BITMAP
001FFC
003FFC
003C00
006C00
00EC00
00CC00
018C00
030FFC
030FFC
060C00
0FFC00
0FFC00
180C00
380C00
300C00
600C00
E00FFC
C00FFC
ENDCHAR

STARTCHAR Ccedilla
ENCODING 199
SWIDTH 813 0
DWIDTH 20 0
BBX 18 22 1 -4
BITMAP
01F800
0FFE00
1C0780
3801C0
700080
600000
C00000
C00000
C00000
C00000
C00000
C00000
600000
7000C0
380180
1C0700
0FFE00
01F000
008000
00E000
002000
03C000
ENDCHAR

STARTCHAR Egrave
ENCODING 200
SWIDTH 536 0
DWIDTH 13 0
BBX 10 23 2 0
BITMAP
3800
1C00
0C00
0600
0000
FFC0
FFC0
C000
C000
C000
C000
C000
FFC0
FFC0
C000
C000
C000
C000
C000
C000
C000
FFC0
FFC0
ENDCHAR

STARTCHAR Eacute
ENCODING 201
SWIDTH 536 0
DWIDTH 13 0
BBX 10 23 2 0
BITMAP
0380
0600
0C00
1800
0000
FFC0
FFC0
C000
C000
C000
C000
C000
FFC0
FFC0
C000
C000
C000
C000
C000
C000
C000
FFC0
FFC0
ENDCHAR

STARTCHAR Ecircumflex
ENCODING 202
SWIDTH 536 0
DWIDTH 13 0
BBX 10 22 2 0
BITMAP
1E00
3B00
61C0
0000
FFC0
FFC0
C000
C000
C000
C000
C000
FFC0
FFC0
C000
C000
C000
C000
C000
C000
C000
FFC0
FFC0
ENDCHAR

STARTCHAR Edieresis
ENCODING 203
SWIDTH 536 0
DWIDTH 13 0
BBX 10 22 2 0
BITMAP
7380
7380
2100
0000
FFC0
FFC0
C000
C000
C000
C000
C000
FFC0
FFC0
C000
C000
C000
C000
C000
C000
C000
FFC0
FFC0
ENDCHAR

STARTCHAR Igrave
ENCODING 204
SWIDTH 226 0
DWIDTH 6 0
BBX 5 23 0 0
BITMAP
E0
60
30
18
00
30
30
30
30
30
30
30
30
30
30
30
30
30
30
30
30
30
30
ENDCHAR

STARTCHAR Iacute
ENCODING 205
SWIDTH 226 0
DWIDTH 6 0
BBX 6 23 1 0
BITMAP
3C
30
60
C0
00
60
60
60
60
60
60
60
60
60
60
60
60
60
60
60
60
60
60
ENDCHAR

STARTCHAR Icircumflex
ENCODING 206
SWIDTH 226 0
DWIDTH 6 0
BBX 8 22 -1 0
BITMAP
3C
66
C3
00
18
18
18
18
18
18
18
18
18
18
18
18
18
18
18
18
18
18
ENDCHAR

STARTCHAR Idieresis
ENCODING 207
SWIDTH 226 0
DWIDTH 6 0
BBX 8 22 -1 0
BITMAP
E7
E7
42
00
18
18
18
18
18
18
18
18
18
18
18
18
18
18
18
18
18
18
ENDCHAR

STARTCHAR Gbreve
ENCODING 208
SWIDTH 872 0
DWIDTH 22 0
BBX 19 22 1 0
BITMAP
071C00
01F800
000000
000000
03F800
0FFE00
1C0780
3801C0
700040
600000
C00000
C00000
C00000
C01FE0
C01FE0
600060
600060
7000C0
380180
1E0780
07FE00
01F800
ENDCHAR

STARTCHAR Ntilde
ENCODING 209
SWIDTH 740 0
DWIDTH 18 0
BBX 14 22 2 0
BITMAP
0E00
1FE0
10C0
0000
800C
C00C
E00C
E00C
D00C
D80C
CC0C
C60C
C70C
C38C
C18C
C0CC
C06C
C03C
C01C
C00C
C00C
C004
ENDCHAR

STARTCHAR Ograve
ENCODING 210
SWIDTH 869 0
DWIDTH 22 0
BBX 19 23 1 0
BITMAP
038000
01C000
00C000
006000
000000
03F000
0FFE00
1C0700
380380
7001C0
6000C0
C00060
C00060
C00060
C00060
C00060
C00060
6000C0
7001C0
380380
1C0700
0FFE00
01F000
ENDCHAR

STARTCHAR Oacute
ENCODING 211
SWIDTH 869 0
DWIDTH 22 0
BBX 19 23 1 0
BITMAP
003800
007000
006000
00C000
000000
03F000
0FFE00
1C0700
380380
7001C0
6000C0
C00060
C00060
C00060
C00060
C00060
C00060
6000C0
7001C0
380380
1C0700
0FFE00
01F000
ENDCHAR

STARTCHAR Ocircumflex
ENCODING 212
SWIDTH 869 0
DWIDTH 22 0
BBX 19 22 1 0
BITMAP
00E000
01B000
071C00
000000
03F000
0FFE00
1C0700
380380
7001C0
6000C0
C00060
C00060
C00060
C00060
C00060
C00060
6000C0
7001C0
380380
1C0700
0FFE00
01F000
ENDCHAR

STARTCHAR Otilde
ENCODING 213
SWIDTH 869 0
DWIDTH 22 0
BBX 19 22 1 0
BITMAP
038000
07FC00
023800
000000
03F000
0FFE00
1C0700
380380
7001C0
6000C0
C00060
C00060
C00060
C00060
C00060
C00060
6000C0
7001C0
380380
1C0700
0FFE00
01F000
ENDCHAR

STARTCHAR Odieresis
ENCODING 214
SWIDTH 869 0
DWIDTH 22 0
BBX 19 22 2 0
BITMAP
033800
073800
033800
000000
03F000
0FFC00
1C0F00
300380
6001C0
6000C0
C00060
C00060
C00060
C00060
C00060
C000E0
6000C0
6001C0
300380
1C0F00
0FFC00
03F000
ENDCHAR

STARTCHAR multiply
ENCODING 215
SWIDTH 606 0
DWIDTH 15 0
BBX 11 10 2 4
BITMAP
C060
60C0
3180
1B00
0E00
0E00
1B00
3180
E0E0
4040
ENDCHAR

STARTCHAR Oslash
ENCODING 216
SWIDTH 868 0
DWIDTH 22 0
BBX 19 19 1 -1
BITMAP
03F0C0
0FFFC0
1C0700
380380
7006C0
600CC0
C01860
C03060
C06060
C0C060
C1C060
C38060
6700C0
7601C0
380380
1C0700
37FE00
61F000
200000
ENDCHAR

STARTCHAR Ugrave
ENCODING 217
SWIDTH 655 0
DWIDTH 16 0
BBX 12 23 2 0
BITMAP
1C00
0C00
0600
0300
0000
C030
C030
C030
C030
C030
C030
C030
C030
C030
C030
C030
C030
C030
C030
6060
70E0
3FC0
0F00
ENDCHAR

STARTCHAR Uacute
ENCODING 218
SWIDTH 655 0
DWIDTH 16 0
BBX 12 23 2 0
BITMAP
0380
0300
0600
0C00
0000
C030
C030
C030
C030
C030
C030
C030
C030
C030
C030
C030
C030
C030
C030
6060
70E0
3FC0
0F00
ENDCHAR

STARTCHAR Ucircumflex
ENCODING 219
SWIDTH 655 0
DWIDTH 16 0
BBX 12 22 2 0
BITMAP
0F00
1980
30C0
0000
C030
C030
C030
C030
C030
C030
C030
C030
C030
C030
C030
C030
C030
C030
6060
70E0
3FC0
0F00
ENDCHAR

STARTCHAR Udieresis
ENCODING 220
SWIDTH 655 0
DWIDTH 16 0
BBX 12 22 2 0
BITMAP
19C0
39C0
1080
0000
C030
C030
C030
C030
C030
C030
C030
C030
C030
C030
C030
C030
C030
C030
6060
70E0
3FC0
0F00
ENDCHAR

STARTCHAR Idotaccent
ENCODING 221
SWIDTH 226 0
DWIDTH 6 0
BBX 3 22 1 0
BITMAP
E0
E0
40
00
60
60
60
60
60
60
60
60
60
60
60
60
60
60
60
60
60
60
ENDCHAR

STARTCHAR Scedilla
ENCODING 222
SWIDTH 498 0
DWIDTH 12 0
BBX 10 22 1 -4
BITMAP
1E00
3F80
61C0
6080
6000
7000
3000
1C00
0E00
0700
0380
01C0
00C0
40C0
C0C0
6180
3F00
1E00
0800
0E00
0200
1C00
ENDCHAR

STARTCHAR germandbls
ENCODING 223
SWIDTH 554 0
DWIDTH 14 0
BBX 11 19 2 0
BITMAP
1E00
3F80
6180
C0C0
C0C0
C0C0
C180
C380
CE00
C780
C0C0
C060
C060
C060
C060
C060
C0C0
DF80
CF00
ENDCHAR

STARTCHAR agrave
ENCODING 224
SWIDTH 683 0
DWIDTH 17 0
BBX 14 20 1 0
BITMAP
0C00
0600
0300
0180
0000
0000
0780
1FEC
383C
601C
600C
C00C
C00C
C00C
C00C
600C
601C
303C
1FEC
078C
ENDCHAR

STARTCHAR aacute
ENCODING 225
SWIDTH 683 0
DWIDTH 17 0
BBX 14 20 1 0
BITMAP
00C0
0180
0300
0600
0000
0000
0780
1FEC
383C
601C
600C
C00C
C00C
C00C
C00C
600C
601C
303C
1FEC
078C
ENDCHAR

STARTCHAR acircumflex
ENCODING 226
SWIDTH 683 0
DWIDTH 17 0
BBX 14 19 1 0
BITMAP
0300
0680
1CE0
0000
0000
0780
1FEC
383C
601C
600C
C00C
C00C
C00C
C00C
600C
601C
303C
1FEC
078C
ENDCHAR

STARTCHAR atilde
ENCODING 227
SWIDTH 683 0
DWIDTH 17 0
BBX 14 19 1 0
BITMAP
0E00
1FE0
11C0
0000
0000
0780
1FEC
383C
601C
600C
C00C
C00C
C00C
C00C
600C
601C
303C
1FEC
078C
ENDCHAR

STARTCHAR adieresis
ENCODING 228
SWIDTH 683 0
DWIDTH 17 0
BBX 14 19 1 0
BITMAP
0CE0
1CE0
0CE0
0000
0000
0780
1FEC
383C
601C
600C
C00C
C00C
C00C
C00C
600C
601C
303C
1FEC
078C
ENDCHAR

STARTCHAR aring
ENCODING 229
SWIDTH 683 0
DWIDTH 17 0
BBX 14 21 1 0
BITMAP
0700
0880
0880
0880
0700
0000
0000
0F00
1FCC
307C
601C
401C
C00C
C00C
C00C
C00C
401C
601C
307C
1FEC
070C
ENDCHAR

STARTCHAR ae
ENCODING 230
SWIDTH 1157 0
DWIDTH 29 0
BBX 26 14 1 0
BITMAP
078C7800
1FEDFE00
303D0380
601E0180
C00C00C0
C00FFFC0
C00FFFC0
C00C0000
C00C0000
601E00C0
601E0180
387D8300
1FEDFE00
078C7800
ENDCHAR

STARTCHAR ccedilla
ENCODING 231
SWIDTH 647 0
DWIDTH 16 0
BBX 13 18 1 -4
BITMAP
07C0
1FF0
3038
6008
6000
C000
C000
C000
C000
6000
6008
3838
1FF0
0780
0200
0380
0080
0700
ENDCHAR

STARTCHAR egrave
ENCODING 232
SWIDTH 650 0
DWIDTH 16 0
BBX 14 20 1 0
BITMAP
0C00
0600
0300
0180
0000
0000
0780
1FE0
3030
6018
600C
C00C
FFFC
C000
C000
600C
6018
3030
1FE0
0780
ENDCHAR

STARTCHAR eacute
ENCODING 233
SWIDTH 650 0
DWIDTH 16 0
BBX 14 20 1 0
BITMAP
00E0
0180
0300
0600
0000
0000
0780
1FE0
3030
6018
600C
C00C
FFFC
C000
C000
600C
6018
3030
1FE0
0780
ENDCHAR

STARTCHAR ecircumflex
ENCODING 234
SWIDTH 650 0
DWIDTH 16 0
BBX 14 19 1 0
BITMAP
0380
0EC0
1C70
0000
0000
0780
1FE0
3030
6018
600C
C00C
FFFC
C000
C000
600C
6018
3030
1FE0
0780
ENDCHAR

STARTCHAR edieresis
ENCODING 235
SWIDTH 650 0
DWIDTH 16 0
BBX 14 19 1 0
BITMAP
1CE0
1CE0
1CE0
0000
0000
0780
1FE0
3030
6018
600C
C00C
FFFC
C000
C000
600C
6018
3030
1FE0
0780
ENDCHAR

STARTCHAR igrave
ENCODING 236
SWIDTH 200 0
DWIDTH 5 0
BBX 5 20 -1 0
BITMAP
E0
60
30
18
00
00
30
30
30
30
30
30
30
30
30
30
30
30
30
30
ENDCHAR

STARTCHAR iacute
ENCODING 237
SWIDTH 200 0
DWIDTH 5 0
BBX 5 20 1 0
BITMAP
38
30
60
C0
00
00
60
60
60
60
60
60
60
60
60
60
60
60
60
60
ENDCHAR

STARTCHAR icircumflex
ENCODING 238
SWIDTH 200 0
DWIDTH 5 0
BBX 8 19 -1 0
BITMAP
3C
66
C3
00
00
18
18
18
18
18
18
18
18
18
18
18
18
18
18
ENDCHAR

STARTCHAR idieresis
ENCODING 239
SWIDTH 200 0
DWIDTH 5 0
BBX 8 19 -1 0
BITMAP
E7
E7
42
00
00
18
18
18
18
18
18
18
18
18
18
18
18
18
18
ENDCHAR

STARTCHAR gbreve
ENCODING 240
SWIDTH 673 0
DWIDTH 17 0
BBX 14 23 1 -5
BITMAP
1860
0FC0
0000
0000
0780
1FEC
383C
601C
600C
C00C
C00C
C00C
C00C
600C
601C
383C
1FEC
078C
000C
E018
7038
1FE0
0780
ENDCHAR

STARTCHAR ntilde
ENCODING 241
SWIDTH 610 0
DWIDTH 15 0
BBX 12 19 2 0
BITMAP
1C00
3FE0
2380
0000
0000
0700
DFC0
F060
E020
C030
C030
C030
C030
C030
C030
C030
C030
C030
C030
ENDCHAR

STARTCHAR ograve
ENCODING 242
SWIDTH 655 0
DWIDTH 16 0
BBX 14 20 1 0
BITMAP
0C00
0600
0300
0180
0000
0000
0780
1FE0
3830
6018
6008
C00C
C00C
C00C
C00C
6018
6018
3030
1FE0
0780
ENDCHAR

STARTCHAR oacute
ENCODING 243
SWIDTH 655 0
DWIDTH 16 0
BBX 14 20 1 0
BITMAP
00C0
0180
0300
0600
0000
0000
0780
1FE0
3830
6018
6008
C00C
C00C
C00C
C00C
6018
6018
3030
1FE0
0780
ENDCHAR

STARTCHAR ocircumflex
ENCODING 244
SWIDTH 655 0
DWIDTH 16 0
BBX 14 19 1 0
BITMAP
0300
0EC0
1CE0
0000
0000
0780
1FE0
3830
6018
6008
C00C
C00C
C00C
C00C
6018
6018
3030
1FE0
0780
ENDCHAR

STARTCHAR otilde
ENCODING 245
SWIDTH 655 0
DWIDTH 16 0
BBX 14 19 1 0
BITMAP
0E00
1FE0
11C0
0000
0000
0780
1FE0
3830
6018
6008
C00C
C00C
C00C
C00C
6018
6018
3030
1FE0
0780
ENDCHAR

STARTCHAR odieresis
ENCODING 246
SWIDTH 655 0
DWIDTH 16 0
BBX 14 19 1 0
BITMAP
0CE0
1CE0
0CE0
0000
0000
0780
1FE0
3030
6018
6008
C00C
C00C
C00C
C00C
6018
6018
3030
1FE0
0780
ENDCHAR

STARTCHAR divide
ENCODING 247
SWIDTH 606 0
DWIDTH 15 0
BBX 12 12 2 3
BITMAP
0600
0600
0000
0000
0000
FFF0
FFF0
0000
0000
0600
0600
0600
ENDCHAR

STARTCHAR oslash
ENCODING 248
SWIDTH 653 0
DWIDTH 16 0
BBX 14 14 1 0
BITMAP
078C
1FF8
3830
6038
6078
C0CC
C18C
C30C
C60C
6C18
6818
3830
3FE0
6780
ENDCHAR

STARTCHAR ugrave
ENCODING 249
SWIDTH 608 0
DWIDTH 15 0
BBX 12 20 2 0
BITMAP
1C00
0C00
0600
0300
0000
0000
C030
C030
C030
C030
C030
C030
C030
C030
C030
C030
6060
70E0
3FC0
0F00
ENDCHAR

STARTCHAR uacute
ENCODING 250
SWIDTH 608 0
DWIDTH 15 0
BBX 12 20 2 0
BITMAP
03C0
0300
0600
0C00
0000
0000
C030
C030
C030
C030
C030
C030
C030
C030
C030
C030
6060
70E0
3FC0
0F00
ENDCHAR

STARTCHAR ucircumflex
ENCODING 251
SWIDTH 608 0
DWIDTH 15 0
BBX 12 19 2 0
BITMAP
0F00
1D80
30E0
0000
0000
C030
C030
C030
C030
C030
C030
C030
C030
C030
C030
6060
70E0
3FC0
0F00
ENDCHAR

STARTCHAR udieresis
ENCODING 252
SWIDTH 608 0
DWIDTH 15 0
BBX 12 19 2 0
BITMAP
39C0
39C0
1080
0000
0000
C030
C030
C030
C030
C030
C030
C030
C030
C030
C030
6060
70E0
3FC0
0F00
ENDCHAR

STARTCHAR dotlessi
ENCODING 253
SWIDTH 200 0
DWIDTH 5 0
BBX 2 14 2 0
BITMAP
C0
C0
C0
C0
C0
C0
C0
C0
C0
C0
C0
C0
C0
C0
ENDCHAR

STARTCHAR scedilla
ENCODING 254
SWIDTH 388 0
DWIDTH 10 0
BBX 8 18 1 -4
BITMAP
3C
7F
C2
C0
C0
60
38
0E
02
03
03
C2
FE
38
10
1C
0C
78
ENDCHAR

STARTCHAR ydieresis
ENCODING 255
SWIDTH 536 0
DWIDTH 13 0
BBX 12 24 1 -5
BITMAP
39C0
39C0
1080
0000
0000
8030
C030
C060
6060
60C0
30C0
3080
1980
1980
0B00
0F00
0E00
0600
0400
0C00
0C00
1800
1800
3000
ENDCHAR
ENDFONT
